<svg id="Capa_1" enable-background="new 0 0 512 512" height="512" viewBox="0 0 512 512" width="512" xmlns="http://www.w3.org/2000/svg"><g><path d="m264.025 440.786c-2.392 2.022-4.768 4.128-7.108 6.295-2.259-2.261-4.548-4.455-6.847-6.562-3.053-2.8-7.798-2.594-10.597.46s-2.592 7.798.461 10.597c3.827 3.509 7.63 7.279 11.302 11.209 1.385 1.482 3.312 2.34 5.339 2.378.047.001.094.001.14.001 1.978 0 3.878-.781 5.284-2.178 3.79-3.764 7.731-7.38 11.713-10.749 3.163-2.675 3.558-7.407.882-10.569-2.673-3.163-7.407-3.559-10.569-.882z"/><path d="m141.154 394.431h-.072c-4.109 0-7.459 3.312-7.498 7.43-.039 4.142 3.287 7.531 7.429 7.57 8.89.084 17.992 1.155 27.054 3.184.552.124 1.103.184 1.646.184 3.434 0 6.53-2.373 7.312-5.863.905-4.042-1.638-8.053-5.68-8.957-10.091-2.261-20.249-3.454-30.191-3.548z"/><path d="m190.214 411.297c-1.664 3.794.063 8.218 3.857 9.881 8.223 3.604 16.335 8.064 24.109 13.255 1.28.854 2.727 1.264 4.158 1.264 2.422 0 4.799-1.171 6.245-3.337 2.3-3.444 1.372-8.102-2.073-10.401-8.503-5.677-17.391-10.562-26.416-14.519-3.793-1.665-8.217.063-9.88 3.857z"/><path d="m86.514 377.373c-2.16 4.867-4.484 9.769-6.908 14.568-1.286 2.547-1.016 5.603.697 7.884l10.11 13.465c1.442 1.922 3.682 2.997 5.999 2.997.751 0 1.51-.112 2.253-.347 5.034-1.586 10.145-2.901 15.19-3.907 4.062-.811 6.698-4.761 5.888-8.823-.811-4.062-4.762-6.697-8.822-5.888-3.868.772-7.767 1.706-11.645 2.79l-4.202-5.597c1.789-3.668 3.515-7.372 5.151-11.059 1.68-3.786-.027-8.217-3.813-9.897-3.788-1.68-8.217.027-9.898 3.814z"/><path d="m101.67 360.067c.792.266 1.596.392 2.388.392 3.134 0 6.057-1.98 7.109-5.115 3.207-9.555 5.967-19.332 8.203-29.061.928-4.037-1.592-8.062-5.629-8.99-4.035-.926-8.061 1.593-8.99 5.629-2.127 9.254-4.753 18.557-7.805 27.648-1.317 3.927.797 8.179 4.724 9.497z"/><path d="m118.923 244.273c.167 0 .336-.006.505-.017 4.133-.275 7.26-3.849 6.985-7.981-.657-9.868-1.786-19.942-3.356-29.943-.643-4.092-4.482-6.892-8.573-6.246-4.092.643-6.888 4.48-6.246 8.573 1.501 9.562 2.581 19.188 3.208 28.612.265 3.963 3.562 7.002 7.477 7.002z"/><path d="m124.668 296.544c1.261-9.91 2.045-20.04 2.331-30.106.117-4.141-3.144-7.593-7.285-7.71-4.115-.106-7.592 3.145-7.709 7.284-.271 9.578-1.017 19.214-2.216 28.64-.523 4.108 2.384 7.863 6.493 8.387.322.04.641.061.956.061 3.719-.001 6.948-2.767 7.43-6.556z"/><path d="m109.86 186.109c.585 0 1.181-.069 1.775-.214 4.025-.977 6.496-5.032 5.519-9.058-2.313-9.528-5.068-19.246-8.188-28.882-1.276-3.94-5.503-6.103-9.446-4.825-3.94 1.276-6.101 5.505-4.825 9.446 3.005 9.281 5.657 18.635 7.883 27.8.833 3.431 3.901 5.733 7.282 5.733z"/><path d="m116.937 80.751c-5.177-.079-10.53-.368-15.91-.858-2.59-.232-5.116.887-6.678 2.966l-14.979 19.949c-1.629 2.17-1.959 5.052-.863 7.534 2.199 4.979 4.32 10.014 6.304 14.965 1.174 2.93 3.989 4.712 6.964 4.712.928 0 1.873-.173 2.787-.54 3.845-1.541 5.713-5.906 4.172-9.751-1.513-3.776-3.103-7.599-4.745-11.409l9.868-13.143c4.34.317 8.646.509 12.848.574.039 0 .078.001.117.001 4.088 0 7.434-3.283 7.497-7.385.066-4.143-3.241-7.552-7.382-7.615z"/><path d="m144.441 86.863c.664 3.617 3.818 6.148 7.368 6.148.449 0 .905-.041 1.362-.125 12.693-2.328 24.564-6.098 35.282-11.204 3.74-1.782 5.327-6.257 3.545-9.997-1.781-3.74-6.257-5.326-9.997-3.545-9.529 4.54-20.14 7.902-31.537 9.992-4.074.748-6.77 4.657-6.023 8.731z"/><path d="m241.271 35h-16.5c-2.397 0-4.65 1.146-6.062 3.084-2.978 4.088-6.332 7.967-9.968 11.53-2.959 2.899-3.008 7.647-.109 10.606 1.469 1.5 3.413 2.251 5.358 2.251 1.894 0 3.789-.713 5.248-2.143 3.304-3.237 6.408-6.7 9.261-10.329h12.772c4.142 0 7.5-3.358 7.5-7.5s-3.358-7.499-7.5-7.499z"/><path d="m283.503 50c2.852 3.628 5.955 7.091 9.26 10.329 1.46 1.43 3.354 2.143 5.249 2.143 1.944 0 3.889-.752 5.357-2.251 2.898-2.958 2.851-7.707-.108-10.606-3.638-3.564-6.991-7.444-9.968-11.53-1.412-1.939-3.665-3.085-6.063-3.085h-16.5c-4.143 0-7.5 3.358-7.5 7.5s3.357 7.5 7.5 7.5z"/><path d="m360.19 93.012c3.55 0 6.705-2.532 7.368-6.148.747-4.074-1.949-7.983-6.023-8.73-11.4-2.091-22.011-5.453-31.536-9.991-3.737-1.783-8.215-.196-9.996 3.544-1.782 3.739-.195 8.215 3.545 9.997 10.715 5.105 22.585 8.875 35.28 11.204.458.084.913.124 1.362.124z"/><path d="m427.188 125.307c1.978-4.936 4.099-9.971 6.304-14.965 1.097-2.482.767-5.363-.862-7.533l-14.978-19.949c-1.561-2.079-4.084-3.202-6.678-2.966-5.375.489-10.728.778-15.91.858-4.142.063-7.447 3.473-7.384 7.614s3.507 7.422 7.614 7.384c4.205-.064 8.511-.257 12.847-.574l9.868 13.144c-1.646 3.819-3.236 7.642-4.745 11.41-1.541 3.845.328 8.211 4.173 9.751.915.366 1.858.54 2.787.54 2.975-.001 5.79-1.784 6.964-4.714z"/><path d="m387.329 296.536c.482 3.787 3.711 6.554 7.431 6.554.315 0 .636-.021.957-.061 4.108-.523 7.016-4.278 6.493-8.388-1.199-9.423-1.944-19.059-2.215-28.64-.117-4.141-3.536-7.402-7.709-7.285-4.14.117-7.402 3.568-7.285 7.709.284 10.071 1.067 20.201 2.328 30.111z"/><path d="m398.256 317.282c-4.037.929-6.557 4.953-5.629 8.99 2.236 9.728 4.997 19.503 8.203 29.057 1.053 3.136 3.975 5.115 7.109 5.115.791 0 1.596-.126 2.388-.392 3.927-1.318 6.042-5.57 4.724-9.497-3.052-9.091-5.678-18.393-7.805-27.645-.93-4.036-4.953-6.554-8.99-5.628z"/><path d="m412.494 143.089c-3.936-1.274-8.169.883-9.445 4.824-3.121 9.635-5.877 19.356-8.193 28.893-.978 4.025 1.493 8.081 5.519 9.058.595.145 1.189.214 1.775.214 3.38 0 6.449-2.302 7.282-5.732 2.229-9.175 4.882-18.532 7.887-27.811 1.276-3.94-.884-8.169-4.825-9.446z"/><path d="m392.574 244.239c.17.011.339.017.507.017 3.914 0 7.211-3.039 7.476-7.001.629-9.431 1.709-19.06 3.211-28.619.643-4.092-2.153-7.93-6.245-8.573-4.1-.649-7.931 2.153-8.573 6.245-1.57 9.999-2.701 20.075-3.359 29.949-.277 4.133 2.85 7.706 6.983 7.982z"/><path d="m396.948 414.922c5.133.736 10.349 1.742 15.503 2.988.586.142 1.177.21 1.763.21 2.325 0 4.562-1.084 5.998-2.997l11.486-15.299c1.713-2.281 1.982-5.337.697-7.884-2.429-4.81-4.753-9.711-6.908-14.568-1.68-3.785-6.108-5.492-9.897-3.813-3.786 1.68-5.493 6.111-3.813 9.897 1.633 3.681 3.358 7.385 5.15 11.059l-5.791 7.714c-4.024-.859-8.062-1.581-12.057-2.154-4.092-.588-7.901 2.258-8.489 6.358-.589 4.101 2.258 7.901 6.358 8.489z"/><path d="m342.652 416.737c.519 0 1.045-.055 1.572-.167 8.563-1.826 17.397-2.889 26.257-3.158 4.141-.125 7.395-3.584 7.269-7.724-.125-4.14-3.562-7.441-7.724-7.269-9.756.296-19.49 1.467-28.931 3.48-4.051.864-6.635 4.849-5.771 8.899.752 3.525 3.864 5.939 7.328 5.939z"/><path d="m291.362 437.62c1.348 0 2.712-.363 3.942-1.125 7.651-4.738 15.606-8.811 23.644-12.103 3.833-1.57 5.668-5.95 4.098-9.783-1.569-3.832-5.948-5.668-9.783-4.098-8.802 3.605-17.501 8.057-25.856 13.231-3.521 2.181-4.608 6.804-2.427 10.325 1.418 2.292 3.871 3.553 6.382 3.553z"/><path d="m227.019 133.03c0 4.142 3.358 7.5 7.5 7.5h42.962c4.143 0 7.5-3.358 7.5-7.5s-3.357-7.5-7.5-7.5h-42.962c-4.142 0-7.5 3.358-7.5 7.5z"/><path d="m299.981 168.276c0-4.142-3.357-7.5-7.5-7.5h-72.962c-4.142 0-7.5 3.358-7.5 7.5s3.358 7.5 7.5 7.5h72.962c4.143 0 7.5-3.358 7.5-7.5z"/><path d="m439.868 308.217c-.818-4.061-4.775-6.685-8.835-5.87-4.06.819-6.688 4.774-5.87 8.835 5.96 29.566 17.09 58.693 33.086 86.589l-33.554 44.689c-86.835-31.367-143.907 26.271-164.458 52.585-1.347 1.724-3.125 2.012-4.079 1.954-1.655-.018-3.174-.791-4.167-2.121-12.066-16.157-32.205-38.36-59.621-52.38-33.906-17.338-69.371-17.51-105.423-.515l-33.196-44.213c26.143-45.591 39.06-94.042 38.395-144.021-.633-47.6-13.629-98.001-38.63-149.818l34.423-45.847c17.871 2.893 34.734 3.455 50.134 1.667 4.115-.478 7.063-4.2 6.586-8.314-.477-4.115-4.204-7.057-8.314-6.586-14.244 1.652-29.979 1.081-46.771-1.699-5.039-.835-10.078 1.195-13.155 5.293l-35.379 47.121c-3.091 4.117-3.612 9.562-1.36 14.21 24.255 50.068 36.86 98.575 37.467 144.174.632 47.503-11.749 93.61-36.799 137.039-2.758 4.781-2.408 10.708.891 15.1l34.354 45.756c3.908 5.204 11.023 6.933 16.915 4.104 31.925-15.304 63.226-15.338 93.033-.095 24.851 12.708 43.317 33.116 54.432 47.999 3.814 5.108 9.655 8.077 16.024 8.146.075 0 .15.001.225.001 6.236 0 11.999-2.807 15.838-7.723 10.576-13.543 28.369-32.211 53.075-44.239 29.661-14.44 61.723-15.508 95.293-3.168 5.722 2.104 12.022.243 15.68-4.627l34.652-46.153c3.3-4.392 3.65-10.32.893-15.102-15.403-26.7-26.097-54.548-31.785-82.771z"/><path d="m169.258 51.914c18.557-7.748 32.02-20.166 40.024-36.914h93.436c9.231 19.299 26.265 33.216 49.308 40.274 20.229 6.197 45.127 7.167 72.034 2.812l34.424 45.847c-29.683 61.524-42.364 120.933-37.688 176.578.329 3.914 3.607 6.872 7.465 6.872.211 0 .424-.009.637-.026 4.128-.347 7.192-3.974 6.846-8.102-4.465-53.139 7.841-110.159 36.576-169.477 2.253-4.648 1.732-10.093-1.359-14.212l-35.378-47.118c-3.078-4.099-8.123-6.128-13.155-5.294-24.953 4.131-47.777 3.362-66.008-2.222-19.408-5.945-33.009-17.029-40.425-32.947-2.263-4.851-7.149-7.985-12.448-7.985h-95.093c-5.301 0-10.187 3.135-12.448 7.986-6.335 13.597-17.279 23.72-32.527 30.086-3.822 1.596-5.627 5.988-4.031 9.811s5.987 5.63 9.81 4.031z"/></g></svg>